<svg width="28" height="23" viewBox="0 0 28 23" fill="none" xmlns="http://www.w3.org/2000/svg">
<path d="M27.0955 3.03056C26.0414 3.47925 24.9869 3.75946 23.9333 3.872C25.1234 3.16539 25.9285 2.16713 26.3478 0.877284C25.2592 1.51649 24.0975 1.9538 22.8623 2.18946C21.7739 1.04541 20.4367 0.473145 18.8497 0.473145C17.3309 0.473145 16.0362 1.00303 14.9646 2.06305C13.8937 3.12302 13.3582 4.40438 13.3582 5.90731C13.3582 6.31103 13.4034 6.72619 13.4942 7.15238C11.2499 7.04022 9.14454 6.48224 7.17787 5.47836C5.21129 4.47438 3.5423 3.13682 2.17089 1.46563C1.67214 2.30667 1.4227 3.22096 1.4227 4.20797C1.4227 5.13894 1.64368 6.00271 2.08595 6.7991C2.52793 7.59535 3.12313 8.24021 3.87125 8.7338C2.98701 8.7001 2.15961 8.4701 1.38899 8.04386V8.11114C1.38899 9.42356 1.80553 10.5758 2.63852 11.5688C3.47162 12.5616 4.52296 13.1866 5.79233 13.4447C5.31623 13.5679 4.83441 13.6296 4.3471 13.6296C4.02972 13.6296 3.68398 13.6016 3.31 13.5459C3.66135 14.6337 4.30746 15.5279 5.2481 16.2293C6.18891 16.9302 7.25439 17.2916 8.44455 17.3146C6.44975 18.8621 4.17721 19.636 1.62695 19.636C1.13949 19.636 0.697555 19.614 0.300781 19.569C2.85111 21.1951 5.66203 22.0082 8.73372 22.0082C10.6832 22.0082 12.5138 21.7029 14.2247 21.0915C15.9366 20.4804 17.3985 19.6615 18.6115 18.6349C19.8241 17.6087 20.8698 16.4282 21.7482 15.0935C22.6266 13.7586 23.2809 12.3651 23.7119 10.9127C24.1425 9.45986 24.3579 8.00485 24.3579 6.54646C24.3579 6.23236 24.3522 5.99694 24.3408 5.83983C25.418 5.06627 26.336 4.12953 27.0955 3.03056Z" fill="#6F6F6F"/>
</svg>
