<svg width="29" height="22" viewBox="0 0 29 22" fill="none" xmlns="http://www.w3.org/2000/svg">
<path d="M28.5046 19.2767C28.4704 19.1821 28.4384 19.1034 28.4087 19.0405C27.9179 17.9076 26.9802 16.5168 25.5961 14.8679L25.5668 14.8302L25.5521 14.8117L25.5373 14.7927H25.5224C24.8942 14.0249 24.4964 13.5087 24.3298 13.2444C24.025 12.7409 23.9567 12.2312 24.1233 11.7149C24.2409 11.3247 24.6832 10.5008 25.4486 9.24197C25.8512 8.57479 26.1701 8.04012 26.4058 7.63728C28.1044 4.74228 28.8407 2.89233 28.6146 2.08674L28.5271 1.89847C28.4681 1.78514 28.3158 1.68145 28.0706 1.58689C27.8251 1.49252 27.511 1.47693 27.128 1.53981L22.8871 1.57737C22.8183 1.54616 22.7201 1.54906 22.5924 1.58689C22.4648 1.62472 22.4009 1.64368 22.4009 1.64368L22.327 1.69097L22.2685 1.74777C22.2194 1.78533 22.1654 1.85139 22.1065 1.94581C22.0477 2.03991 21.9988 2.15035 21.9595 2.27618C21.4978 3.79912 20.9727 5.21508 20.3837 6.52399C20.0204 7.30447 19.6868 7.98087 19.3822 8.55358C19.0778 9.1261 18.8225 9.54791 18.6166 9.81831C18.4101 10.089 18.2241 10.3058 18.0568 10.4696C17.8899 10.6334 17.7624 10.7027 17.6741 10.6773C17.5858 10.652 17.5025 10.6269 17.4236 10.6018C17.2862 10.4884 17.1758 10.3343 17.0926 10.1392C17.0087 9.94416 16.9524 9.69862 16.923 9.40283C16.8937 9.10685 16.8764 8.85228 16.8715 8.63822C16.8668 8.42445 16.8689 8.12204 16.879 7.73191C16.8892 7.34156 16.8937 7.07745 16.8937 6.93899C16.8937 6.46064 16.901 5.94149 16.9156 5.38139C16.9304 4.82129 16.9424 4.37754 16.9524 4.0506C16.9625 3.72333 16.9671 3.37712 16.9671 3.0121C16.9671 2.64708 16.9498 2.36081 16.9156 2.15306C16.8818 1.94554 16.8299 1.74414 16.7615 1.54887C16.6925 1.35379 16.5917 1.20289 16.4595 1.09578C16.327 0.988775 16.1623 0.903869 15.9662 0.840787C15.4459 0.689821 14.7832 0.608156 13.978 0.59546C12.1521 0.570333 10.9788 0.721496 10.4585 1.04876C10.2523 1.18703 10.0658 1.37595 9.89898 1.61493C9.72223 1.89193 9.69758 2.04308 9.82519 2.06795C10.4143 2.1811 10.8314 2.45176 11.0768 2.87964L11.1653 3.10641C11.2341 3.26999 11.3028 3.55962 11.3715 3.97489C11.4402 4.39016 11.4845 4.84954 11.504 5.35276C11.553 6.2717 11.553 7.05835 11.504 7.71272C11.4548 8.36737 11.4084 8.87701 11.3641 9.24203C11.3198 9.60705 11.2536 9.90281 11.1653 10.1293C11.0768 10.3559 11.018 10.4943 10.9885 10.5446C10.959 10.5948 10.9345 10.6265 10.915 10.6389C10.7874 10.7016 10.6547 10.7336 10.5173 10.7336C10.3798 10.7336 10.213 10.6453 10.0166 10.4691C9.82039 10.2928 9.6167 10.0506 9.40558 9.7422C9.19448 9.43374 8.9564 9.00264 8.69123 8.44891C8.42627 7.89516 8.15137 7.24072 7.86665 6.48556L7.63109 5.93791C7.48384 5.58558 7.28269 5.07258 7.02742 4.39935C6.77201 3.72585 6.54625 3.07439 6.34999 2.44506C6.27154 2.18076 6.15368 1.97954 5.99663 1.84108L5.92294 1.78428C5.87393 1.73403 5.79527 1.68066 5.68738 1.62378C5.57932 1.56699 5.46656 1.52626 5.34865 1.50118L1.31374 1.53874C0.901416 1.53874 0.621666 1.65851 0.474354 1.89768L0.415401 2.01081C0.38595 2.07383 0.371094 2.17449 0.371094 2.31301C0.371094 2.45149 0.400546 2.62143 0.459499 2.82264C1.04852 4.59747 1.68908 6.30914 2.38115 7.95791C3.07322 9.60672 3.67463 10.9349 4.18499 11.9412C4.69546 12.9482 5.21579 13.8986 5.74597 14.792C6.27613 15.6857 6.62707 16.2584 6.79879 16.51C6.97069 16.7621 7.10572 16.9505 7.20386 17.0764L7.57208 17.5294C7.8077 17.8315 8.15368 18.1934 8.6102 18.6149C9.06682 19.0367 9.57235 19.4519 10.127 19.8613C10.6818 20.2701 11.3272 20.6036 12.0636 20.8617C12.7999 21.1198 13.5165 21.2234 14.2136 21.1734H15.9071C16.2505 21.1353 16.5107 20.9971 16.6875 20.758L16.7462 20.6634C16.7857 20.5882 16.8226 20.4717 16.8565 20.3144C16.891 20.1573 16.9081 19.984 16.9081 19.7953C16.898 19.2542 16.9301 18.7665 17.0036 18.3324C17.0771 17.8983 17.1607 17.571 17.2542 17.3507C17.3477 17.1304 17.4533 16.9446 17.5708 16.794C17.6884 16.643 17.7722 16.5516 17.8216 16.5201C17.8705 16.4884 17.9095 16.4669 17.9389 16.454C18.1745 16.3534 18.4519 16.4509 18.771 16.7469C19.0903 17.0427 19.3897 17.4079 19.6696 17.842C19.9495 18.2765 20.2856 18.764 20.6782 19.3049C21.0712 19.8463 21.4147 20.2486 21.709 20.5132L22.0033 20.7399C22.2001 20.8909 22.4554 21.0296 22.7695 21.1553C23.0833 21.2811 23.3579 21.3126 23.5939 21.2498L27.3635 21.1744C27.7366 21.1744 28.0265 21.0951 28.2323 20.938C28.4385 20.7807 28.5611 20.6074 28.6005 20.419C28.64 20.2303 28.6421 20.0161 28.6081 19.7767C28.5731 19.5378 28.5388 19.3709 28.5046 19.2767Z" fill="#6F6F6F"/>
</svg>
