<svg width="30" height="22" viewBox="0 0 30 22" fill="none" xmlns="http://www.w3.org/2000/svg">
<path d="M28.691 2.27914C27.6133 0.998123 25.6237 0.475586 21.8238 0.475586L8.03052 0.475586C4.14373 0.475586 2.12035 1.03182 1.04674 2.39564C0 3.72539 0 5.68466 0 8.39632L0 13.5648C0 18.8181 1.24195 21.4854 8.03052 21.4854H21.8238C25.119 21.4854 26.945 21.0244 28.1263 19.8938C29.3378 18.7346 29.8547 16.8418 29.8547 13.5648V8.39632C29.8547 5.53664 29.7737 3.56582 28.691 2.27914ZM19.1668 11.6941L12.9033 14.9675C12.7632 15.0407 12.6101 15.077 12.4572 15.077C12.284 15.077 12.1112 15.0304 11.9582 14.9377C11.6701 14.7631 11.4941 14.4508 11.4941 14.114V7.58816C11.4941 7.25186 11.6696 6.93986 11.9572 6.76516C12.2448 6.59047 12.6026 6.57854 12.901 6.73357L19.1647 9.98587C19.4833 10.1513 19.6833 10.4803 19.6838 10.8392C19.6843 11.1984 19.485 11.5279 19.1668 11.6941Z" fill="#6F6F6F"/>
</svg>
